<svg width="403" height="161" viewBox="0 0 403 161" fill="none" xmlns="http://www.w3.org/2000/svg">
<path d="M262.199 114.094C262.42 114.094 262.578 113.941 262.578 113.727V110.485C262.578 110.271 262.42 110.118 262.199 110.118H253.469C252.963 110.118 252.742 110.393 252.584 110.576L250.022 113.054C249.737 113.391 249.61 113.666 249.61 114.094V120.762C249.61 120.977 249.769 121.129 249.99 121.129H258.466V123.576L257.518 124.494H249.674C249.452 124.494 249.294 124.647 249.294 124.861V128.104C249.294 128.318 249.452 128.471 249.674 128.471H259.036C259.542 128.471 259.763 128.195 259.921 128.012L262.515 125.504C262.799 125.136 262.894 124.984 262.894 124.464V117.52C262.894 117.306 262.736 117.153 262.515 117.153H254.038V115.012L254.987 114.094H262.199Z" fill="#E8E8E8"/>
<path d="M281.499 128.471C282.037 128.471 282.195 128.134 282.385 127.981L284.978 125.504C285.295 125.198 285.358 124.984 285.358 124.464V114.094C285.358 113.666 285.231 113.391 284.947 113.054L282.385 110.576C282.227 110.393 281.974 110.118 281.499 110.118H273.719C273.244 110.118 272.991 110.393 272.833 110.576L270.271 113.054C269.986 113.391 269.86 113.666 269.86 114.094V124.464C269.86 124.984 269.923 125.198 270.24 125.504L272.833 127.981C273.023 128.134 273.181 128.471 273.719 128.471H281.499ZM279.981 114.094L280.93 115.012V123.576L279.981 124.494H275.237L274.288 123.576V115.012L275.237 114.094H279.981Z" fill="#E8E8E8"/>
<path d="M296.738 110.485C296.738 110.271 296.58 110.118 296.358 110.118H292.689C292.468 110.118 292.31 110.271 292.31 110.485V128.104C292.31 128.318 292.468 128.471 292.689 128.471H303.633C303.854 128.471 304.012 128.318 304.012 128.104V124.861C304.012 124.647 303.854 124.494 303.633 124.494H296.738V110.485Z" fill="#E8E8E8"/>
<path d="M325.517 110.485C325.517 110.271 325.359 110.118 325.138 110.118H321.469C321.247 110.118 321.089 110.271 321.089 110.485V123.576L320.14 124.494H316.029L315.08 123.576V110.485C315.08 110.271 314.922 110.118 314.7 110.118H311.031C310.81 110.118 310.652 110.271 310.652 110.485V124.464C310.652 124.984 310.715 125.198 311.031 125.504L313.625 128.012C313.909 128.287 314.004 128.471 314.51 128.471H321.658C322.133 128.471 322.228 128.318 322.544 128.012L325.138 125.504C325.454 125.198 325.517 124.984 325.517 124.464V110.485Z" fill="#E8E8E8"/>
<path d="M337.544 128.104C337.544 128.318 337.703 128.471 337.924 128.471H341.593C341.814 128.471 341.972 128.318 341.972 128.104V114.094H346.97C347.191 114.094 347.349 113.941 347.349 113.727V110.485C347.349 110.271 347.191 110.118 346.97 110.118H332.547C332.326 110.118 332.168 110.271 332.168 110.485V113.727C332.168 113.941 332.326 114.094 332.547 114.094H337.544V128.104Z" fill="#E8E8E8"/>
<path d="M358.404 110.485C358.404 110.271 358.246 110.118 358.025 110.118H354.356C354.134 110.118 353.976 110.271 353.976 110.485V128.104C353.976 128.318 354.134 128.471 354.356 128.471H358.025C358.246 128.471 358.404 128.318 358.404 128.104V110.485Z" fill="#E8E8E8"/>
<path d="M377.008 128.471C377.546 128.471 377.704 128.134 377.893 127.981L380.487 125.504C380.803 125.198 380.866 124.984 380.866 124.464V114.094C380.866 113.666 380.74 113.391 380.455 113.054L377.893 110.576C377.735 110.393 377.482 110.118 377.008 110.118H369.227C368.753 110.118 368.5 110.393 368.342 110.576L365.78 113.054C365.495 113.391 365.369 113.666 365.369 114.094V124.464C365.369 124.984 365.432 125.198 365.748 125.504L368.342 127.981C368.531 128.134 368.69 128.471 369.227 128.471H377.008ZM375.49 114.094L376.439 115.012V123.576L375.49 124.494H370.745L369.797 123.576V115.012L370.745 114.094H375.49Z" fill="#E8E8E8"/>
<path d="M391.93 117.765L398.635 128.165C398.762 128.379 398.952 128.471 399.331 128.471H402.621C402.842 128.471 403 128.318 403 128.104V110.485C403 110.271 402.842 110.118 402.621 110.118H399.268C399.047 110.118 398.888 110.271 398.888 110.485V120.824L392.215 110.424C392.088 110.24 391.899 110.118 391.519 110.118H388.198C387.977 110.118 387.819 110.271 387.819 110.485V128.104C387.819 128.318 387.977 128.471 388.198 128.471H391.551C391.772 128.471 391.93 128.318 391.93 128.104V117.765Z" fill="#E8E8E8"/>
<path d="M99.4116 38.2351H110.118V48.1763H99.4116V38.2351Z" fill="#E8E8E8"/>
<path d="M99.4116 69.5881H110.118V80.294H99.4116V69.5881Z" fill="#E8E8E8"/>
<path d="M99.4116 100.941H110.118V111.647H99.4116V100.941Z" fill="#E8E8E8"/>
<path d="M67.2942 100.941H78.0001V111.647H67.2942V100.941Z" fill="#E8E8E8"/>
<path d="M35.9412 100.941H46.647V111.647H35.9412V100.941Z" fill="#E8E8E8"/>
<path d="M43.5881 93.2942H48.9411V98.6471H43.5881V93.2942Z" fill="#9E9E9E"/>
<path d="M29.8235 93.2942H35.1764V98.6471H29.8235V93.2942Z" fill="#9E9E9E"/>
<path d="M24.4707 104.765H27.5295V107.823H24.4707V104.765Z" fill="#595959"/>
<path d="M41.2942 72.647H43.5883V75.7058H41.2942V72.647Z" fill="#595959"/>
<path d="M52 35.9412H55.0588V39H52V35.9412Z" fill="#595959"/>
<path d="M19.8823 142.235H22.1764V144.529H19.8823V142.235Z" fill="#595959"/>
<path d="M74.1765 131.529H77.2353V133.823H74.1765V131.529Z" fill="#595959"/>
<path d="M115.471 156H118.53V158.294H115.471V156Z" fill="#595959"/>
<path d="M130 78.7646H132.294V81.0588H130V78.7646Z" fill="#595959"/>
<path d="M146.059 73.4116H148.353V76.4704H146.059V73.4116Z" fill="#595959"/>
<path d="M126.941 55.0588H130V57.353H126.941V55.0588Z" fill="#595959"/>
<path d="M133.823 32.8823H136.118V35.1764H133.823V32.8823Z" fill="#595959"/>
<path d="M195.765 10.7058H198.823V13.7646H195.765V10.7058Z" fill="#595959"/>
<path d="M206.47 58.1177H208.765V61.1765H206.47V58.1177Z" fill="#595959"/>
<path d="M227.118 67.2942H229.412V69.5883H227.118V67.2942Z" fill="#595959"/>
<path d="M237.823 108.588H240.882V111.647H237.823V108.588Z" fill="#626262"/>
<path d="M226.353 100.941H228.647V103.235H226.353V100.941Z" fill="#626262"/>
<path d="M221 110.117H224.059V113.176H221V110.117Z" fill="#626262"/>
<path d="M221 131.529H224.059V133.823H221V131.529Z" fill="#626262"/>
<path d="M240.882 142.235H243.176V144.529H240.882V142.235Z" fill="#626262"/>
<path d="M206.47 140.706H208.765V143.765H206.47V140.706Z" fill="#626262"/>
<path d="M199.588 91H201.882V94.0588H199.588V91Z" fill="#626262"/>
<path d="M265.353 120.823H267.647V123.118H265.353V120.823Z" fill="#626262"/>
<path d="M256.176 106.294H258.47V108.588H256.176V106.294Z" fill="#626262"/>
<path d="M208.765 82.5881H211.823V85.647H208.765V82.5881Z" fill="#595959"/>
<path d="M179.706 61.9412H182.765V65H179.706V61.9412Z" fill="#595959"/>
<path d="M188.882 99.4116H191.941V102.47H188.882V99.4116Z" fill="#595959"/>
<path d="M186.588 132.294H188.882V135.353H186.588V132.294Z" fill="#595959"/>
<path d="M157.53 140.706H159.824V143.765H157.53V140.706Z" fill="#595959"/>
<path d="M198.823 158.294H201.882V160.588H198.823V158.294Z" fill="#595959"/>
<path d="M144.53 96.353H146.824V99.4119H144.53V96.353Z" fill="#595959"/>
<path d="M130 0H132.294V2.29412H130V0Z" fill="#595959"/>
<path d="M90.2354 17.5881H93.2942V19.8823H90.2354V17.5881Z" fill="#595959"/>
<path d="M0 80.2942H2.29412V83.353H0V80.2942Z" fill="#595959"/>
<path d="M29.8235 113.177H35.1764V118.529H29.8235V113.177Z" fill="#9E9E9E"/>
<path d="M46.647 113.177H51.9999V118.529H46.647V113.177Z" fill="#9E9E9E"/>
<path d="M61.9412 113.177H67.2941V118.529H61.9412V113.177Z" fill="#9E9E9E"/>
<path d="M78 113.177H83.3529V118.529H78V113.177Z" fill="#9E9E9E"/>
<path d="M93.2942 113.177H97.8824V118.529H93.2942V113.177Z" fill="#9E9E9E"/>
<path d="M93.2942 127.706H97.8824V133.059H93.2942V127.706Z" fill="#9E9E9E"/>
<path d="M112.412 127.706H117.765V133.059H112.412V127.706Z" fill="#9E9E9E"/>
<path d="M112.412 113.177H117.765V118.529H112.412V113.177Z" fill="#9E9E9E"/>
<path d="M126.941 113.177H132.294V118.529H126.941V113.177Z" fill="#9E9E9E"/>
<path d="M126.941 124.647H132.294V130H126.941V124.647Z" fill="#9E9E9E"/>
<path d="M146.059 126.177H150.647V131.529H146.059V126.177Z" fill="#9E9E9E"/>
<path d="M162.118 126.177H167.471V131.529H162.118V126.177Z" fill="#9E9E9E"/>
<path d="M177.412 126.177H182.765V131.529H177.412V126.177Z" fill="#9E9E9E"/>
<path d="M193.47 126.177H198.823V131.529H193.47V126.177Z" fill="#9E9E9E"/>
<path d="M211.059 126.177H215.647V131.529H211.059V126.177Z" fill="#9E9E9E"/>
<path d="M211.059 106.294H215.647V111.647H211.059V106.294Z" fill="#9E9E9E"/>
<path d="M211.059 106.294H215.647V111.647H211.059V106.294Z" fill="#9E9E9E"/>
<path d="M228.647 107.823H233.235V113.176H228.647V107.823Z" fill="#686868"/>
<path d="M228.647 127.706H233.235V133.059H228.647V127.706Z" fill="#686868"/>
<path d="M239.353 117H244.706V122.353H239.353V117Z" fill="#686868"/>
<path d="M217.176 117H222.529V122.353H217.176V117Z" fill="#686868"/>
<path d="M193.47 106.294H198.823V111.647H193.47V106.294Z" fill="#9E9E9E"/>
<path d="M177.412 106.294H182.765V111.647H177.412V106.294Z" fill="#9E9E9E"/>
<path d="M164.412 106.294H169.765V111.647H164.412V106.294Z" fill="#9E9E9E"/>
<path d="M178.177 93.2942H183.529V98.6471H178.177V93.2942Z" fill="#9E9E9E"/>
<path d="M193.47 81.0588H198.823V86.4118H193.47V81.0588Z" fill="#9E9E9E"/>
<path d="M204.177 66.5293H208.765V71.8822H204.177V66.5293Z" fill="#9E9E9E"/>
<path d="M199.588 40.5293H204.941V45.8822H199.588V40.5293Z" fill="#9E9E9E"/>
<path d="M186.588 40.5293H191.941V45.8822H186.588V40.5293Z" fill="#9E9E9E"/>
<path d="M181.235 30.5881H186.588V35.9411H181.235V30.5881Z" fill="#9E9E9E"/>
<path d="M162.882 26H168.235V31.3529H162.882V26Z" fill="#9E9E9E"/>
<path d="M143 35.1765H148.353V40.5295H143V35.1765Z" fill="#9E9E9E"/>
<path d="M130 46.647H135.353V51.2352H130V46.647Z" fill="#9E9E9E"/>
<path d="M152.177 48.1765H157.529V53.5295H152.177V48.1765Z" fill="#9E9E9E"/>
<path d="M140.706 56.5881H146.059V61.9411H140.706V56.5881Z" fill="#9E9E9E"/>
<path d="M162.882 46.647H168.235V51.2352H162.882V46.647Z" fill="#9E9E9E"/>
<path d="M175.882 46.647H181.235V51.9999H175.882V46.647Z" fill="#9E9E9E"/>
<path d="M186.588 52H191.941V57.3529H186.588V52Z" fill="#9E9E9E"/>
<path d="M181.235 71.8823H186.588V77.2353H181.235V71.8823Z" fill="#9E9E9E"/>
<path d="M141.471 106.294H146.824V111.647H141.471V106.294Z" fill="#9E9E9E"/>
<path d="M170.53 81.0588H175.882V86.4118H170.53V81.0588Z" fill="#9E9E9E"/>
<path d="M156.765 92.5293H162.118V97.8822H156.765V92.5293Z" fill="#9E9E9E"/>
<path d="M126.941 95.5881H132.294V100.941H126.941V95.5881Z" fill="#9E9E9E"/>
<path d="M111.647 95.5881H117V100.941H111.647V95.5881Z" fill="#9E9E9E"/>
<path d="M111.647 80.2942H117V85.6471H111.647V80.2942Z" fill="#9E9E9E"/>
<path d="M111.647 64.2351H117V69.588H111.647V64.2351Z" fill="#9E9E9E"/>
<path d="M111.647 48.1765H117V53.5295H111.647V48.1765Z" fill="#9E9E9E"/>
<path d="M111.647 32.8823H117V38.2353H111.647V32.8823Z" fill="#9E9E9E"/>
<path d="M89.4707 38.2351H94.8236V43.588H89.4707V38.2351Z" fill="#9E9E9E"/>
<path d="M78 49.7058H82.5882V55.0588H78V49.7058Z" fill="#9E9E9E"/>
<path d="M88.7058 61.9412H94.0588V67.2941H88.7058V61.9412Z" fill="#9E9E9E"/>
<path d="M91.7646 80.2942H97.1176V85.6471H91.7646V80.2942Z" fill="#9E9E9E"/>
<path d="M91.7646 93.2942H97.1176V98.6471H91.7646V93.2942Z" fill="#9E9E9E"/>
<path d="M79.5293 93.2942H84.1175V98.6471H79.5293V93.2942Z" fill="#9E9E9E"/>
<path d="M65.7646 93.2942H71.1176V98.6471H65.7646V93.2942Z" fill="#9E9E9E"/>
<path d="M77.2354 74.1765H82.5883V79.5295H77.2354V74.1765Z" fill="#9E9E9E"/>
<path d="M64.2354 64.2351H69.5883V69.588H64.2354V64.2351Z" fill="#9E9E9E"/>
<path d="M53.5293 78H58.8822V83.3529H53.5293V78Z" fill="#9E9E9E"/>
<path d="M78.7646 37.4707H84.1176V42.8236H78.7646V37.4707Z" fill="#9E9E9E"/>
<path d="M52 87.1765L61.9412 87.1765L61.9412 97.8824L52 97.8824L52 87.1765Z" fill="#E8E8E8"/>
<path d="M74.448 74.8374L74.6807 85.3952L64.1229 85.628L63.8902 75.0702L74.448 74.8374Z" fill="#E8E8E8"/>
<path d="M84.8823 60.4116L84.8823 70.3528L74.1764 70.3528L74.1764 60.4116L84.8823 60.4116Z" fill="#E8E8E8"/>
<path d="M97.1177 48.1765L97.1177 58.8824L86.4118 58.8824L86.4118 48.1765L97.1177 48.1765Z" fill="#E8E8E8"/>
<path d="M115.471 100.941H125.412V111.647H115.471V100.941Z" fill="#E8E8E8"/>
<path d="M166.706 114.706H177.412V124.647H166.706V114.706Z" fill="#E8E8E8"/>
<path d="M150.647 114.706H161.353V124.647H150.647V114.706Z" fill="#E8E8E8"/>
<path d="M150.647 100.941H161.353V111.647H150.647V100.941Z" fill="#E8E8E8"/>
<path d="M164.412 91H175.118V100.941H164.412V91Z" fill="#E8E8E8"/>
<path d="M178.177 79.5293H188.882V90.2352H178.177V79.5293Z" fill="#E8E8E8"/>
<path d="M188.882 66.5293H199.588V77.2352H188.882V66.5293Z" fill="#E8E8E8"/>
<path d="M193.47 51.2351H204.176V61.941H193.47V51.2351Z" fill="#E8E8E8"/>
<path d="M183.53 39H194.235V49.7059H183.53V39Z" fill="#E8E8E8"/>
<path d="M168.235 32.8823H178.177V43.5882H168.235V32.8823Z" fill="#E8E8E8"/>
<path d="M152.177 32.8823H162.882V43.5882H152.177V32.8823Z" fill="#E8E8E8"/>
<path d="M137.647 43.5881H148.353V54.294H137.647V43.5881Z" fill="#E8E8E8"/>
<path d="M135.353 114.706H146.059V124.647H135.353V114.706Z" fill="#E8E8E8"/>
<path d="M198.823 114.706H208.765V124.647H198.823V114.706Z" fill="#E8E8E8"/>
<path d="M225.588 114.706H236.294V124.647H225.588V114.706Z" fill="#939393"/>
<path d="M182.765 114.706H193.471V124.647H182.765V114.706Z" fill="#E8E8E8"/>
<path d="M83.353 100.941H94.0589V111.647H83.353V100.941Z" fill="#E8E8E8"/>
<path d="M52 100.941H61.9412V111.647H52V100.941Z" fill="#E8E8E8"/>
<path d="M99.4116 53.5293H110.118V64.2352H99.4116V53.5293Z" fill="#E8E8E8"/>
<path d="M99.4116 85.647H110.118V95.5881H99.4116V85.647Z" fill="#E8E8E8"/>
<path d="M99.4116 117H110.118V127.706H99.4116V117Z" fill="#E8E8E8"/>
</svg>
